<svg width="683" height="71" viewBox="0 0 683 71" fill="none" xmlns="http://www.w3.org/2000/svg">
<path d="M667.441 63.6543H676.938L674.674 69.8761H665.176L667.441 63.6543Z" fill="white"/>
<path d="M645.938 47.4395H656.962L655.049 64.3452H655.162L665.555 47.4395H676.749L659.877 69.8757H646.309L645.938 47.4395Z" fill="white"/>
<path d="M628.575 63.6543H638.072L635.808 69.8761H626.31L628.575 63.6543Z" fill="white"/>
<path d="M617.628 54.2588C618.093 52.9809 618.184 52.1115 617.899 51.6507C617.615 51.1898 616.964 50.9593 615.946 50.9593C615.154 50.9593 614.472 51.0746 613.898 51.305C613.362 51.5354 612.855 51.9439 612.378 52.5305C611.938 53.1171 611.498 53.9131 611.056 54.9187C610.623 55.9033 610.131 57.1497 609.582 58.6581C609.033 60.1664 608.613 61.4233 608.323 62.4289C608.04 63.4135 607.905 64.199 607.917 64.7856C607.968 65.3722 608.177 65.7807 608.545 66.0111C608.951 66.2416 609.55 66.3568 610.342 66.3568C610.982 66.3568 611.541 66.273 612.016 66.1054C612.499 65.9169 612.93 65.6131 613.309 65.1941C613.687 64.7751 614.04 64.22 614.367 63.5287C614.74 62.8164 615.12 61.9261 615.509 60.8577H625.685L625.079 62.5231C624.507 64.0943 623.661 65.3827 622.541 66.3882C621.422 67.3938 620.133 68.1898 618.676 68.7764C617.226 69.342 615.657 69.7191 613.968 69.9076C612.308 70.1171 610.631 70.2219 608.935 70.2219C605.995 70.2219 603.656 70.0228 601.916 69.6248C600.177 69.2268 598.947 68.5669 598.227 67.6451C597.515 66.7024 597.218 65.4979 597.338 64.0315C597.502 62.5441 597.966 60.753 598.728 58.6581C599.506 56.5213 600.391 54.7092 601.385 53.2218C602.416 51.7345 603.665 50.5299 605.131 49.6081C606.597 48.6864 608.326 48.0265 610.318 47.6285C612.317 47.2095 614.673 47 617.387 47C619.761 47 621.717 47.1676 623.253 47.5028C624.789 47.838 625.952 48.3198 626.741 48.9482C627.575 49.5558 628.058 50.2995 628.19 51.1793C628.367 52.0382 628.258 53.0123 627.861 54.1017L627.347 55.5157H617.171L617.628 54.2588Z" fill="white"/>
<path d="M561.047 47.4395H584.961L583.222 52.2158H569.824L568.429 56.0494H580.979L579.309 60.6373H566.759L565.135 65.0994H579.042L577.303 69.8757H552.881L561.047 47.4395Z" fill="white"/>
<path d="M528.585 47.4395H543.849C546.902 47.4395 549.162 47.7537 550.629 48.3822C552.104 48.9897 553.065 49.8172 553.513 50.8646C554.007 51.8911 554.1 53.0852 553.792 54.4469C553.493 55.7876 553.076 57.1912 552.543 58.6576C552.009 60.124 551.4 61.5381 550.716 62.8997C550.039 64.2405 549.077 65.4346 547.829 66.482C546.626 67.5085 545.063 68.336 543.138 68.9644C541.221 69.572 538.736 69.8757 535.683 69.8757H520.419L528.585 47.4395ZM532.467 65.665H534.559C535.576 65.665 536.413 65.5917 537.07 65.445C537.734 65.2774 538.308 64.9423 538.792 64.4395C539.315 63.9367 539.781 63.2244 540.192 62.3027C540.641 61.3809 541.139 60.1659 541.688 58.6576C542.237 57.1493 542.623 55.9342 542.845 55.0125C543.106 54.0907 543.157 53.3785 543.001 52.8757C542.883 52.3729 542.549 52.0482 541.999 51.9016C541.457 51.734 540.677 51.6502 539.66 51.6502H537.568L532.467 65.665Z" fill="white"/>
<path d="M493.989 52.0273L487.64 61.5485H493.52L494.102 52.0273H493.989ZM502.33 47.4395L504 69.8757H492.807L493.162 65.9478H484.796L482.292 69.8757H471.268L489.101 47.4395H502.33Z" fill="white"/>
<path d="M462.013 63.6543H471.511L469.246 69.8761H459.749L462.013 63.6543Z" fill="white"/>
<path d="M452.895 53.9131L453.09 53.3789C453.334 52.7086 453.295 52.143 452.972 51.6821C452.658 51.2003 451.992 50.9593 450.974 50.9593C449.843 50.9593 448.938 51.1688 448.258 51.5878C447.585 51.9858 447.158 52.4362 446.975 52.939C446.708 53.6722 446.909 54.2588 447.578 54.6987C448.292 55.1177 449.233 55.4843 450.4 55.7985C451.567 56.1128 452.824 56.4375 454.172 56.7727C455.528 57.0869 456.751 57.5059 457.842 58.0296C458.932 58.5533 459.736 59.2446 460.253 60.1035C460.815 60.9415 460.848 62.0413 460.352 63.403C459.483 65.7912 457.625 67.5299 454.779 68.6193C451.94 69.6877 448.203 70.2219 443.567 70.2219C441.381 70.2219 439.479 70.1171 437.859 69.9076C436.269 69.7191 434.978 69.3839 433.985 68.9021C433.037 68.3993 432.407 67.7499 432.094 66.9538C431.78 66.1578 431.837 65.1732 432.264 64L432.55 63.2144H442.726L442.532 63.7486C442.181 64.7123 442.253 65.3931 442.749 65.7912C443.253 66.1682 444.013 66.3568 445.031 66.3568C446.124 66.3568 447.029 66.1473 447.747 65.7283C448.502 65.3093 448.991 64.7961 449.212 64.1886C449.479 63.4554 449.274 62.8793 448.597 62.4603C447.966 62.0204 447.082 61.6538 445.945 61.3605C444.853 61.0462 443.648 60.732 442.331 60.4178C441.013 60.1035 439.824 59.695 438.763 59.1923C437.74 58.6895 436.962 58.0296 436.431 57.2126C435.936 56.3956 435.93 55.3272 436.41 54.0074C437.241 51.724 438.967 49.9852 441.587 48.7911C444.208 47.597 447.742 47 452.189 47C456.787 47 459.902 47.5551 461.533 48.6654C463.209 49.7548 463.609 51.504 462.732 53.9131H452.895Z" fill="white"/>
<path d="M38.1001 47.4537C36.6521 51.4319 36.4429 54.084 37.4725 55.41C38.6101 56.7361 40.5831 57.3991 43.3915 57.3991C46.2 57.3991 48.6016 56.7361 50.5965 55.41C52.6993 54.084 54.4748 51.4319 55.9227 47.4537C57.3476 43.5387 57.4913 40.9182 56.3537 39.5921C55.3241 38.2661 53.4051 37.6031 50.5967 37.6031C47.7883 37.6031 45.3327 38.2661 43.2298 39.5921C41.2349 40.9182 39.525 43.5387 38.1001 47.4537ZM49.5766 19.0383C48.979 20.6801 48.7009 22.0377 48.7423 23.1112C48.7836 24.1847 49.0134 25.0371 49.4317 25.6686C49.981 26.2369 50.6417 26.6473 51.4139 26.8999C52.3171 27.0894 53.3088 27.1841 54.3889 27.1841C56.5492 27.1841 58.5809 26.6473 60.4838 25.5739C62.3867 24.5004 63.9358 22.3219 65.1309 19.0383C65.7284 17.3965 65.995 16.0705 65.9307 15.0602C65.8894 13.9867 65.594 13.1658 65.0448 12.5975C64.6265 11.966 63.9658 11.5556 63.0626 11.3662C62.2904 11.1136 61.3642 10.9873 60.2841 10.9873C59.2039 10.9873 58.1318 11.1136 57.0677 11.3662C56.1346 11.5556 55.1751 11.966 54.1892 12.5975C53.3342 13.1658 52.4954 13.9867 51.6726 15.0602C50.8728 16.0705 50.1741 17.3965 49.5766 19.0383ZM39.4959 68.1023C33.339 68.1023 27.9336 67.8181 23.2797 67.2498C18.7339 66.6815 15.074 65.608 12.3001 64.0294C9.54916 62.3876 7.74969 60.2091 6.90169 57.4938C6.1617 54.7786 6.55015 51.3372 8.06703 47.1696C9.56093 43.0651 12.3912 39.5921 16.5579 36.7506C20.8326 33.909 26.2484 32.2357 32.8052 31.7305L32.8741 31.5411C29.6865 31.0991 27.1194 30.4361 25.1729 29.552C23.3573 28.6048 22.0198 27.5314 21.1602 26.3316C20.3237 25.0687 19.8882 23.7426 19.8538 22.3535C19.9503 20.9011 20.2629 19.4488 20.7915 17.9964C21.7568 15.3443 23.2897 12.9132 25.3903 10.7031C27.5989 8.49305 30.4487 6.59868 33.9398 5.02005C37.5388 3.44142 41.8215 2.21009 46.788 1.32605C51.8624 0.442017 57.6941 0 64.2831 0C70.9801 0 76.4901 0.442017 80.813 1.32605C85.1359 2.21009 88.4683 3.44142 90.8101 5.02005C93.26 6.59868 94.7308 8.49305 95.2226 10.7031C95.8224 12.9132 95.6397 15.3443 94.6744 17.9964C94.1458 19.4488 93.3471 20.9011 92.2784 22.3535C91.3408 23.7426 89.994 25.0687 88.2381 26.3316C86.5053 27.5314 84.3863 28.6048 81.8812 29.552C79.3992 30.4361 76.3494 31.0991 72.732 31.5411L72.6631 31.7305C75.9817 32.1094 78.6568 32.7724 80.6884 33.7196C82.828 34.6668 84.4011 35.835 85.4077 37.2242C86.4373 38.5502 86.9659 40.0657 86.9934 41.7706C87.129 43.4756 86.852 45.2752 86.1626 47.1696C84.6457 51.3372 82.475 54.7786 79.6504 57.4938C76.9339 60.2091 73.6026 62.3876 69.6565 64.0294C65.8415 65.608 61.4002 66.6815 56.3326 67.2498C51.2651 67.8181 45.6528 68.1023 39.4959 68.1023Z" fill="white"/>
<path d="M392.954 42.7695L383.587 56.089H393.905L393.152 42.7695H392.954ZM406.737 36.3516L413.851 67.7381H394.206L394.098 62.2433H379.414L375.752 67.7381H356.405L383.52 36.3516H406.737Z" fill="white"/>
<path d="M328.673 52.045C327.991 54.155 327.488 55.9134 327.166 57.3201C326.853 58.6975 326.762 59.7964 326.894 60.617C327.091 61.4375 327.535 62.009 328.224 62.3314C328.98 62.6537 330.052 62.8149 331.441 62.8149C332.83 62.8149 333.974 62.6537 334.872 62.3314C335.836 62.009 336.649 61.4375 337.311 60.617C338.039 59.7964 338.692 58.6975 339.27 57.3201C339.857 55.9134 340.492 54.155 341.174 52.045C341.857 49.935 342.354 48.1913 342.667 46.8139C342.99 45.4073 343.053 44.2936 342.855 43.4731C342.723 42.6525 342.28 42.081 341.524 41.7587C340.835 41.4363 339.795 41.2751 338.406 41.2751C337.017 41.2751 335.841 41.4363 334.877 41.7587C333.979 42.081 333.166 42.6525 332.437 43.4731C331.775 44.2936 331.15 45.4073 330.563 46.8139C329.985 48.1913 329.356 49.935 328.673 52.045ZM309.624 52.045C310.571 49.1144 311.807 46.6234 313.33 44.572C314.863 42.4913 316.83 40.8062 319.231 39.5168C321.642 38.198 324.562 37.2456 327.993 36.6595C331.433 36.044 335.501 35.7363 340.197 35.7363C344.894 35.7363 348.763 36.044 351.805 36.6595C354.856 37.2456 357.161 38.198 358.719 39.5168C360.286 40.8062 361.163 42.4913 361.35 44.572C361.547 46.6234 361.171 49.1144 360.224 52.045C359.276 54.9756 358.036 57.4813 356.503 59.562C354.98 61.6134 353.013 63.2985 350.602 64.6172C348.201 65.9067 345.29 66.8298 341.869 67.3866C338.448 67.9434 334.389 68.2218 329.693 68.2218C324.997 68.2218 321.118 67.9434 318.057 67.3866C314.996 66.8298 312.682 65.9067 311.115 64.6172C309.557 63.2985 308.679 61.6134 308.483 59.562C308.296 57.4813 308.676 54.9756 309.624 52.045Z" fill="white"/>
<path d="M259.811 36.3516H278.265L274.541 47.8688H285.851L289.576 36.3516H308.03L297.88 67.7381H279.426L283.606 54.8142H272.295L268.116 67.7381H249.662L259.811 36.3516Z" fill="white"/>
<path d="M231.712 45.8908C232.29 44.1031 232.286 42.887 231.701 42.2422C231.116 41.5975 229.93 41.2751 228.144 41.2751C226.755 41.2751 225.579 41.4363 224.615 41.7587C223.717 42.081 222.903 42.6525 222.175 43.4731C221.513 44.2936 220.888 45.4073 220.301 46.8139C219.723 48.1913 219.093 49.935 218.411 52.045C217.729 54.155 217.226 55.9134 216.904 57.3201C216.591 58.6975 216.5 59.7964 216.631 60.617C216.829 61.4375 217.273 62.009 217.962 62.3314C218.718 62.6537 219.79 62.8149 221.179 62.8149C222.303 62.8149 223.267 62.6977 224.071 62.4633C224.884 62.1995 225.583 61.7746 226.17 61.1884C226.756 60.6023 227.272 59.8257 227.717 58.8586C228.237 57.8622 228.739 56.6167 229.223 55.1221H247.081L246.328 57.452C245.617 59.6499 244.373 61.4522 242.595 62.8589C240.818 64.2656 238.705 65.3792 236.257 66.1997C233.818 66.991 231.134 67.5185 228.204 67.7823C225.332 68.0753 222.407 68.2218 219.431 68.2218C214.271 68.2218 210.128 67.9434 207.001 67.3866C203.874 66.8298 201.593 65.9067 200.158 64.6172C198.732 63.2985 197.987 61.6134 197.923 59.562C197.934 57.4813 198.414 54.9756 199.362 52.045C200.328 49.0558 201.545 46.5209 203.011 44.4402C204.544 42.3594 206.511 40.6744 208.912 39.3849C211.314 38.0954 214.225 37.1723 217.646 36.6155C221.076 36.0294 225.173 35.7363 229.935 35.7363C234.102 35.7363 237.565 35.9708 240.324 36.4397C243.083 36.9086 245.213 37.5826 246.714 38.4618C248.292 39.3116 249.278 40.352 249.674 41.5828C250.145 42.7844 250.134 44.1471 249.641 45.671L249.002 47.6492H231.143L231.712 45.8908Z" fill="white"/>
<path d="M163.281 52.045C162.598 54.155 162.096 55.9134 161.773 57.3201C161.46 58.6975 161.369 59.7964 161.501 60.617C161.699 61.4375 162.142 62.009 162.832 62.3314C163.587 62.6537 164.66 62.8149 166.049 62.8149C167.438 62.8149 168.581 62.6537 169.479 62.3314C170.443 62.009 171.256 61.4375 171.919 60.617C172.647 59.7964 173.3 58.6975 173.878 57.3201C174.465 55.9134 175.099 54.155 175.782 52.045C176.464 49.935 176.962 48.1913 177.275 46.8139C177.597 45.4073 177.66 44.2936 177.462 43.4731C177.331 42.6525 176.887 42.081 176.132 41.7587C175.442 41.4363 174.403 41.2751 173.014 41.2751C171.625 41.2751 170.448 41.4363 169.484 41.7587C168.586 42.081 167.773 42.6525 167.045 43.4731C166.382 44.2936 165.758 45.4073 165.171 46.8139C164.593 48.1913 163.963 49.935 163.281 52.045ZM144.231 52.045C145.179 49.1144 146.414 46.6234 147.938 44.572C149.47 42.4913 151.437 40.8062 153.839 39.5168C156.249 38.198 159.17 37.2456 162.6 36.6595C166.041 36.044 170.109 35.7363 174.805 35.7363C179.501 35.7363 183.37 36.044 186.412 36.6595C189.464 37.2456 191.768 38.198 193.326 39.5168C194.894 40.8062 195.771 42.4913 195.958 44.572C196.154 46.6234 195.779 49.1144 194.831 52.045C193.883 54.9756 192.643 57.4813 191.111 59.562C189.587 61.6134 187.62 63.2985 185.21 64.6172C182.808 65.9067 179.897 66.8298 176.476 67.3866C173.055 67.9434 168.996 68.2218 164.3 68.2218C159.604 68.2218 155.725 67.9434 152.664 67.3866C149.603 66.8298 147.289 65.9067 145.722 64.6172C144.164 63.2985 143.287 61.6134 143.09 59.562C142.903 57.4813 143.284 54.9756 144.231 52.045Z" fill="white"/>
<path d="M665.45 7.61544L665.636 7.10424C665.87 6.46275 665.736 5.92148 665.234 5.48045C664.74 5.01938 663.806 4.78884 662.43 4.78884C660.903 4.78884 659.709 4.98931 658.85 5.39024C657.999 5.77113 657.485 6.20214 657.31 6.68326C657.055 7.3849 657.411 7.94621 658.378 8.36719C659.403 8.76813 660.727 9.11894 662.349 9.41965C663.971 9.72035 665.717 10.0311 667.586 10.3518C669.463 10.6525 671.176 11.0535 672.725 11.5546C674.274 12.0558 675.46 12.7173 676.281 13.5393C677.16 14.3411 677.363 15.3936 676.889 16.6966C676.057 18.982 673.796 20.6458 670.106 21.6883C666.424 22.7107 661.451 23.2219 655.187 23.2219C652.233 23.2219 649.647 23.1216 647.428 22.9212C645.253 22.7407 643.46 22.42 642.049 21.9589C640.696 21.4778 639.751 20.8563 639.213 20.0946C638.676 19.3328 638.611 18.3906 639.02 17.268L639.293 16.5162H653.044L652.858 17.0274C652.522 17.9496 652.718 18.6011 653.445 18.982C654.179 19.3428 655.234 19.5232 656.609 19.5232C658.086 19.5232 659.28 19.3228 660.189 18.9218C661.15 18.5209 661.736 18.0297 661.948 17.4484C662.203 16.7467 661.844 16.1955 660.869 15.7945C659.953 15.3735 658.706 15.0227 657.127 14.7421C655.607 14.4414 653.934 14.1407 652.108 13.84C650.282 13.5393 648.617 13.1483 647.111 12.6672C645.657 12.1861 644.511 11.5546 643.676 10.7728C642.891 9.99098 642.728 8.96859 643.188 7.70565C643.983 5.52055 646.066 3.85667 649.435 2.714C652.805 1.57133 657.495 1 663.504 1C669.717 1 674.005 1.53124 676.369 2.59372C678.79 3.63615 679.582 5.31006 678.742 7.61544H665.45Z" fill="white"/>
<path d="M608.273 1.4209H640.586L638.923 5.99156H620.818L619.483 9.66012H636.442L634.844 14.0504H617.885L616.331 18.3203H635.123L633.459 22.891H600.458L608.273 1.4209Z" fill="white"/>
<path d="M575.311 10.5021H578.138C580.175 10.5021 581.761 10.2715 582.896 9.81047C584.039 9.32935 584.749 8.7079 585.026 7.94613C585.355 7.04402 585.104 6.40252 584.275 6.02163C583.497 5.64074 582.039 5.4503 579.9 5.4503H577.15L575.311 10.5021ZM564.408 1.4209H586.637C589.337 1.4209 591.577 1.56123 593.359 1.84188C595.193 2.12254 596.6 2.52347 597.582 3.04469C598.621 3.54586 599.268 4.14726 599.522 4.8489C599.827 5.55054 599.83 6.31231 599.531 7.13423C599.005 8.5776 597.844 9.74031 596.046 10.6224C594.248 11.5044 591.683 12.0457 588.35 12.2462L588.328 12.3063C591.697 12.4266 593.868 12.8977 594.842 13.7196C595.816 14.5415 596.04 15.6742 595.515 17.1175L594.847 18.9518C594.745 19.2325 594.639 19.5231 594.53 19.8238C594.421 20.1245 594.34 20.4152 594.289 20.6959C594.245 20.9565 594.234 21.197 594.256 21.4176C594.277 21.6381 594.342 21.8085 594.451 21.9288C594.611 22.049 594.771 22.1693 594.931 22.2896C595.098 22.3898 595.393 22.4901 595.815 22.5903L595.705 22.891H580.58C580.326 22.6103 580.166 22.2796 580.101 21.8987C580.087 21.5178 580.098 21.1369 580.135 20.756C580.223 20.3751 580.303 20.0143 580.376 19.6735C580.507 19.3126 580.613 19.022 580.693 18.8015L581.219 17.3581C581.438 16.7567 581.544 16.2555 581.537 15.8546C581.53 15.4536 581.363 15.1429 581.036 14.9224C580.767 14.6818 580.341 14.5215 579.76 14.4413C579.236 14.341 578.541 14.2909 577.675 14.2909H573.932L570.802 22.891H556.593L564.408 1.4209Z" fill="white"/>
<path d="M531.115 12.156C530.59 13.5994 530.203 14.8022 529.954 15.7645C529.713 16.7067 529.643 17.4584 529.745 18.0197C529.897 18.581 530.238 18.9719 530.769 19.1924C531.351 19.413 532.177 19.5232 533.246 19.5232C534.316 19.5232 535.196 19.413 535.887 19.1924C536.63 18.9719 537.256 18.581 537.766 18.0197C538.326 17.4584 538.829 16.7067 539.274 15.7645C539.726 14.8022 540.215 13.5994 540.74 12.156C541.266 10.7127 541.649 9.51988 541.89 8.57768C542.138 7.61544 542.186 6.85366 542.034 6.29235C541.933 5.73104 541.591 5.34013 541.009 5.11961C540.479 4.8991 539.678 4.78884 538.609 4.78884C537.54 4.78884 536.634 4.8991 535.891 5.11961C535.2 5.34013 534.574 5.73104 534.013 6.29235C533.503 6.85366 533.022 7.61544 532.57 8.57768C532.125 9.51988 531.64 10.7127 531.115 12.156ZM516.448 12.156C517.177 10.1514 518.129 8.44738 519.302 7.0441C520.482 5.62078 521.996 4.46809 523.845 3.58603C525.701 2.68393 527.95 2.03241 530.591 1.63147C533.24 1.21049 536.372 1 539.988 1C543.604 1 546.583 1.21049 548.925 1.63147C551.275 2.03241 553.049 2.68393 554.249 3.58603C555.455 4.46809 556.131 5.62078 556.275 7.0441C556.426 8.44738 556.137 10.1514 555.407 12.156C554.678 14.1607 553.723 15.8747 552.543 17.298C551.37 18.7013 549.855 19.854 547.999 20.7561C546.15 21.6382 543.909 22.2696 541.275 22.6505C538.641 23.0314 535.516 23.2219 531.9 23.2219C528.284 23.2219 525.298 23.0314 522.941 22.6505C520.584 22.2696 518.802 21.6382 517.596 20.7561C516.396 19.854 515.721 18.7013 515.569 17.298C515.425 15.8747 515.718 14.1607 516.448 12.156Z" fill="white"/>
<path d="M478.095 1.4209H498.72C502.845 1.4209 505.944 1.7216 508.017 2.323C510.097 2.90436 511.515 3.69621 512.271 4.69855C513.085 5.68084 513.382 6.8235 513.162 8.12655C512.95 9.40954 512.588 10.7527 512.077 12.1559C511.567 13.5592 510.947 14.9124 510.218 16.2154C509.496 17.4984 508.367 18.6411 506.831 19.6434C505.353 20.6257 503.359 21.4176 500.848 22.019C498.345 22.6003 495.031 22.891 490.906 22.891H470.28L478.095 1.4209ZM485.956 18.8616H488.782C490.157 18.8616 491.278 18.7914 492.143 18.6511C493.017 18.4907 493.745 18.17 494.327 17.6889C494.961 17.2077 495.489 16.5261 495.912 15.6441C496.385 14.762 496.885 13.5993 497.41 12.1559C497.936 10.7126 498.282 9.54987 498.451 8.66781C498.67 7.78575 498.638 7.10416 498.355 6.62304C498.122 6.14192 497.624 5.83119 496.861 5.69086C496.104 5.53049 495.038 5.4503 493.663 5.4503H490.837L485.956 18.8616Z" fill="white"/>
<path d="M451.848 5.81114L444.636 14.9224H452.581L452.001 5.81114H451.848ZM462.46 1.4209L467.938 22.891H452.812L452.729 19.1322H441.423L438.604 22.891H423.707L444.585 1.4209H462.46Z" fill="white"/>
<path d="M407.542 1.4209L401.905 16.907C401.526 17.9495 401.652 18.6511 402.285 19.0119C402.925 19.3527 403.907 19.5231 405.231 19.5231C406.555 19.5231 407.661 19.3527 408.549 19.0119C409.444 18.6511 410.082 17.9495 410.461 16.907L416.098 1.4209H430.306L425.184 15.4937C424.637 16.9972 423.773 18.2502 422.594 19.2525C421.414 20.2548 419.925 21.0567 418.128 21.6581C416.381 22.2595 414.322 22.6705 411.95 22.891C409.578 23.1115 406.889 23.2218 403.885 23.2218C400.931 23.2218 398.323 23.1115 396.06 22.891C393.849 22.6705 392.063 22.2595 390.704 21.6581C389.395 21.0567 388.515 20.2548 388.065 19.2525C387.615 18.2502 387.664 16.9972 388.211 15.4937L393.333 1.4209H407.542Z" fill="white"/>
<path d="M366.263 11.2239H384.597L380.351 22.8911H370.725L371.109 20.9967H370.956C370.33 21.4577 369.53 21.8386 368.554 22.1393C367.63 22.44 366.604 22.6706 365.476 22.8309C364.407 22.9713 363.25 23.0715 362.006 23.1316C360.812 23.1918 359.605 23.2219 358.382 23.2219C354.766 23.2219 351.998 22.9913 350.078 22.5302C348.165 22.0491 346.846 21.3375 346.119 20.3953C345.393 19.4531 345.128 18.2903 345.326 16.9071C345.575 15.5239 346.024 13.9402 346.673 12.156C347.33 10.3518 348.165 8.7581 349.178 7.37488C350.241 5.99165 351.683 4.82893 353.503 3.88674C355.373 2.94454 357.721 2.23288 360.544 1.75176C363.375 1.25059 366.878 1 371.054 1C373.549 1 375.794 1.1303 377.787 1.39091C379.831 1.65152 381.511 2.0725 382.827 2.65386C384.143 3.23522 385.067 3.98697 385.597 4.90912C386.134 5.81123 386.166 6.9138 385.692 8.21684H371.941C372.357 7.07417 372.405 6.24223 372.086 5.72102C371.803 5.09957 370.821 4.78884 369.14 4.78884C367.969 4.78884 366.986 4.8991 366.193 5.11961C365.451 5.34013 364.799 5.73104 364.239 6.29235C363.729 6.85366 363.248 7.61544 362.796 8.57768C362.351 9.51988 361.866 10.7127 361.34 12.156C360.815 13.5994 360.428 14.8022 360.18 15.7645C359.939 16.7067 359.869 17.4584 359.97 18.0197C360.122 18.581 360.464 18.9719 360.995 19.1924C361.577 19.413 362.402 19.5232 363.472 19.5232C364.236 19.5232 364.92 19.4631 365.524 19.3428C366.178 19.2225 366.768 19.002 367.292 18.6813C367.824 18.3405 368.297 17.8794 368.712 17.298C369.186 16.6966 369.59 15.9348 369.926 15.0127H364.884L366.263 11.2239Z" fill="white"/>
<path d="M331.119 1.4209H345.328L337.513 22.891H323.305L331.119 1.4209Z" fill="white"/>
<path d="M301.819 6.17198H291.277L293.006 1.4209H328.452L326.723 6.17198H316.028L309.943 22.891H295.734L301.819 6.17198Z" fill="white"/>
<path d="M264.749 10.5021H267.575C269.612 10.5021 271.198 10.2715 272.334 9.81047C273.477 9.32935 274.187 8.7079 274.464 7.94613C274.792 7.04402 274.542 6.40252 273.713 6.02163C272.935 5.64074 271.476 5.4503 269.337 5.4503H266.587L264.749 10.5021ZM253.845 1.4209H276.075C278.774 1.4209 281.015 1.56123 282.797 1.84188C284.63 2.12254 286.037 2.52347 287.019 3.04469C288.059 3.54586 288.706 4.14726 288.96 4.8489C289.264 5.55054 289.267 6.31231 288.968 7.13423C288.443 8.5776 287.281 9.74031 285.483 10.6224C283.685 11.5044 281.12 12.0457 277.788 12.2462L277.766 12.3063C281.134 12.4266 283.305 12.8977 284.28 13.7196C285.254 14.5415 285.478 15.6742 284.953 17.1175L284.285 18.9518C284.183 19.2325 284.077 19.5231 283.968 19.8238C283.858 20.1245 283.778 20.4152 283.727 20.6959C283.683 20.9565 283.671 21.197 283.693 21.4176C283.715 21.6381 283.78 21.8085 283.889 21.9288C284.049 22.049 284.209 22.1693 284.369 22.2896C284.536 22.3898 284.83 22.4901 285.252 22.5903L285.143 22.891H270.018C269.763 22.6103 269.603 22.2796 269.538 21.8987C269.524 21.5178 269.536 21.1369 269.572 20.756C269.66 20.3751 269.74 20.0143 269.814 19.6735C269.945 19.3126 270.051 19.022 270.131 18.8015L270.656 17.3581C270.875 16.7567 270.981 16.2555 270.974 15.8546C270.967 15.4536 270.8 15.1429 270.473 14.9224C270.204 14.6818 269.779 14.5215 269.197 14.4413C268.673 14.341 267.979 14.2909 267.113 14.2909H263.37L260.239 22.891H246.031L253.845 1.4209Z" fill="white"/>
<path d="M220.553 12.156C220.028 13.5994 219.641 14.8022 219.392 15.7645C219.151 16.7067 219.081 17.4584 219.183 18.0197C219.335 18.581 219.676 18.9719 220.207 19.1924C220.789 19.413 221.615 19.5232 222.684 19.5232C223.754 19.5232 224.634 19.413 225.325 19.1924C226.068 18.9719 226.694 18.581 227.204 18.0197C227.764 17.4584 228.267 16.7067 228.712 15.7645C229.164 14.8022 229.653 13.5994 230.178 12.156C230.704 10.7127 231.087 9.51988 231.328 8.57768C231.576 7.61544 231.624 6.85366 231.472 6.29235C231.371 5.73104 231.029 5.34013 230.447 5.11961C229.917 4.8991 229.116 4.78884 228.047 4.78884C226.977 4.78884 226.072 4.8991 225.329 5.11961C224.638 5.34013 224.012 5.73104 223.451 6.29235C222.941 6.85366 222.46 7.61544 222.008 8.57768C221.563 9.51988 221.078 10.7127 220.553 12.156ZM205.886 12.156C206.615 10.1514 207.567 8.44738 208.739 7.0441C209.92 5.62078 211.434 4.46809 213.283 3.58603C215.139 2.68393 217.388 2.03241 220.029 1.63147C222.678 1.21049 225.81 1 229.426 1C233.042 1 236.021 1.21049 238.363 1.63147C240.713 2.03241 242.487 2.68393 243.687 3.58603C244.893 4.46809 245.569 5.62078 245.713 7.0441C245.864 8.44738 245.575 10.1514 244.845 12.156C244.116 14.1607 243.161 15.8747 241.981 17.298C240.808 18.7013 239.293 19.854 237.437 20.7561C235.588 21.6382 233.347 22.2696 230.713 22.6505C228.079 23.0314 224.954 23.2219 221.338 23.2219C217.722 23.2219 214.736 23.0314 212.379 22.6505C210.022 22.2696 208.24 21.6382 207.034 20.7561C205.834 19.854 205.159 18.7013 205.007 17.298C204.863 15.8747 205.156 14.1607 205.886 12.156Z" fill="white"/>
<path d="M152.973 1.4209H173.293L174.392 14.1406H174.545L184.904 1.4209H205.224L197.41 22.891H184.118L189.94 6.89367H189.787L176.402 22.891H166.166L164.426 6.89367H164.273L158.45 22.891H145.158L152.973 1.4209Z" fill="white"/>
<path d="M127.261 5.81114L120.049 14.9224H127.994L127.414 5.81114H127.261ZM137.873 1.4209L143.351 22.891H128.226L128.142 19.1322H116.836L114.017 22.891H99.1206L119.998 1.4209H137.873Z" fill="white"/>
</svg>
